<?xml version="1.0" standalone="no"?>
<!DOCTYPE svg PUBLIC "-//W3C//DTD SVG 20010904//EN"
 "http://www.w3.org/TR/2001/REC-SVG-20010904/DTD/svg10.dtd">
<svg version="1.0" xmlns="http://www.w3.org/2000/svg"
 width="601.000000pt" height="415.000000pt" viewBox="0 0 601.000000 415.000000"
 preserveAspectRatio="xMidYMid meet">

<g transform="translate(0.000000,415.000000) scale(0.100000,-0.100000)"
fill="#000000" stroke="none">
<path d="M2858 3850 c-82 -13 -232 -65 -306 -106 -329 -184 -522 -566 -473
-941 51 -396 316 -924 756 -1508 63 -82 127 -165 143 -184 l28 -34 101 129
c429 553 717 1083 805 1484 30 135 30 332 0 454 -83 332 -325 584 -657 681
-101 30 -291 42 -397 25z m272 -422 c243 -73 387 -322 325 -561 -61 -235 -289
-388 -520 -349 -319 53 -491 403 -337 686 100 185 334 283 532 224z"/>
<path d="M2893 3170 c-97 -56 -138 -176 -94 -276 42 -93 107 -137 206 -137
131 0 219 89 220 223 0 54 -5 73 -28 113 -40 67 -111 107 -192 107 -48 0 -70
-6 -112 -30z"/>
<path d="M2386 1389 c-123 -14 -328 -50 -451 -79 -179 -43 -296 -84 -430 -150
-383 -189 -380 -425 8 -614 225 -109 556 -188 972 -233 225 -24 824 -24 1045
1 700 77 1166 256 1249 479 71 188 -185 384 -664 507 -221 57 -574 110 -586
88 -4 -7 -48 -69 -99 -137 -50 -68 -90 -125 -88 -127 2 -2 76 -10 163 -19 273
-27 521 -76 714 -141 92 -31 216 -87 225 -103 11 -18 -161 -95 -304 -136 -337
-97 -684 -139 -1150 -138 -414 1 -737 37 -1047 118 -200 53 -392 132 -377 157
4 6 39 26 79 44 202 93 508 164 864 199 85 8 156 16 157 18 5 5 -191 271 -202
272 -5 1 -40 -1 -78 -6z"/>
</g>
</svg>
