    <svg
      width="16"
      height="11"
      viewBox="0 0 16 11"
      fill="currentColor"
      xmlns="http://www.w3.org/2000/svg"
    >
      <path
        fillRule="evenodd"
        clipRule="evenodd"
        d="M0.00390625 10.332H16.0039V0.332031H0.00390625V10.332ZM14.0039 3.78203V6.89203C13.4039 7.23824 12.9043 7.73447 12.5539 8.33203H3.43391C3.0891 7.73697 2.59655 7.24098 2.00391 6.89203V3.78203C2.60502 3.4329 3.10478 2.93315 3.45391 2.33203H12.5539C12.903 2.93315 13.4028 3.4329 14.0039 3.78203ZM6.50391 5.33203C6.50391 6.43703 7.17591 7.33203 8.00391 7.33203C8.83191 7.33203 9.50391 6.43703 9.50391 5.33203C9.50391 4.22703 8.83191 3.33203 8.00391 3.33203C7.17591 3.33203 6.50391 4.22703 6.50391 5.33203Z"
      />
    </svg>