<svg {...props} width="18" height="18" viewBox="0 0 18 18"   fill="currentColor" xmlns="http://www.w3.org/2000/svg">
<path d="M9.73661 5.77296H9.72321L9.62946 5.83673L8.49107 6.58929L8.35714 6.66582L8.23661 6.72959L8.10268 6.78061L7.95536 6.83163L7.82143 6.8699L7.67411 6.89541L7.52679 6.90816H7.37946H3.09375V13.4133L3.10714 13.5026L3.12054 13.5791L3.16071 13.6429L3.20089 13.7066L3.25446 13.7577L3.32143 13.7959L3.38839 13.8087L3.46875 13.8214H14.5312L14.6116 13.8087L14.6786 13.7959L14.7455 13.7577L14.7991 13.7066L14.8393 13.6429L14.8795 13.5791L14.8929 13.5026L14.9062 13.4133V6.1301L14.8929 6.06633L14.8795 5.9898L14.8527 5.93878L14.8125 5.88776L14.7723 5.84949L14.7188 5.81122L14.6518 5.79847L14.5982 5.78571H9.79018L9.73661 5.77296ZM8.30357 4.17857H3.45536L3.38839 4.19133L3.32143 4.20408L3.25446 4.24235L3.20089 4.29337L3.16071 4.35714L3.12054 4.42092L3.10714 4.49745L3.09375 4.58673V6.10459H7.47321L7.63393 6.07908L7.79464 6.04082L7.94196 5.96429L9.17411 5.17347L8.54464 4.30612L8.49107 4.2551L8.4375 4.21684L8.37054 4.19133L8.30357 4.17857ZM2.25 4.58673V4.45918L2.27679 4.33163L2.30357 4.21684L2.34375 4.1148L2.39732 4L2.45089 3.91071L2.53125 3.80867L2.61161 3.73214L2.69196 3.65561L2.78571 3.57908L2.87946 3.51531L2.98661 3.46429L3.10714 3.42602L3.21429 3.40051L3.33482 3.375H3.46875H8.30357L8.4375 3.38776L8.57143 3.41327L8.70536 3.45153L8.82589 3.50255L8.94643 3.56633L9.05357 3.64286L9.14732 3.7449L9.24107 3.84694L10.058 4.98214H14.5982H14.7054L14.8259 5.00765L14.933 5.03316L15.0402 5.07143L15.1473 5.12245L15.2411 5.17347L15.3348 5.25L15.4152 5.31378L15.4821 5.40306L15.5491 5.49235L15.6161 5.58163L15.6562 5.68367L15.6964 5.78571L15.7232 5.90051L15.75 6.01531V6.1301V13.4133V13.5408L15.7232 13.6684L15.6964 13.7832L15.6562 13.8852L15.6027 14L15.5491 14.0893L15.4688 14.1913L15.3884 14.2679L15.308 14.3444L15.2143 14.4209L15.1205 14.4847L15.0134 14.5357L14.8929 14.574L14.7857 14.5995L14.6652 14.625H14.5312H3.46875H3.33482L3.21429 14.5995L3.10714 14.574L2.98661 14.5357L2.87946 14.4847L2.78571 14.4209L2.69196 14.3444L2.61161 14.2679L2.53125 14.1913L2.45089 14.0893L2.39732 14L2.34375 13.8852L2.30357 13.7832L2.27679 13.6684L2.25 13.5408V13.4133V4.58673Z"    fill="currentColor"/>
</svg>
