<svg width="22" height="21" viewBox="0 0 22 21" fill="none" xmlns="http://www.w3.org/2000/svg">
<path d="M18.9146 1.96875H6.37959C6.27686 1.96866 6.17512 1.98881 6.08018 2.02805C5.98524 2.06728 5.89896 2.12483 5.82626 2.1974C5.75356 2.26998 5.69587 2.35617 5.65648 2.45104C5.61708 2.54591 5.59677 2.64762 5.59668 2.75034V6.23438L12.8607 8.36719L19.6982 6.23438V2.75034C19.6981 2.64756 19.6778 2.54581 19.6383 2.45089C19.5989 2.35597 19.5411 2.26976 19.4684 2.19717C19.3956 2.12458 19.3092 2.06705 19.2142 2.02786C19.1192 1.98866 19.0174 1.96858 18.9146 1.96875Z" fill="#41A5EE"/>
<path d="M19.6982 6.23438H5.59668V10.5L12.8607 11.7797L19.6982 10.5V6.23438Z" fill="#2B7CD3"/>
<path d="M5.59668 10.5V14.7656L12.4335 15.6187L19.6982 14.7656V10.5H5.59668Z" fill="#185ABD"/>
<path d="M6.37959 19.0312H18.914C19.0168 19.0315 19.1187 19.0115 19.2138 18.9723C19.3089 18.9332 19.3953 18.8757 19.4681 18.8031C19.541 18.7305 19.5988 18.6442 19.6383 18.5493C19.6777 18.4543 19.6981 18.3525 19.6982 18.2497V14.7656H5.59668V18.2497C5.59677 18.3524 5.61708 18.4541 5.65648 18.549C5.69587 18.6438 5.75356 18.73 5.82626 18.8026C5.89896 18.8752 5.98524 18.9327 6.08018 18.972C6.17512 19.0112 6.27686 19.0313 6.37959 19.0312Z" fill="#103F91"/>
<path opacity="0.1" d="M10.7955 5.38135H5.59668V16.0454H10.7955C11.0026 16.0444 11.2011 15.9618 11.3477 15.8155C11.4944 15.6692 11.5775 15.471 11.5791 15.2638V6.16294C11.5775 5.95579 11.4944 5.75759 11.3477 5.61129C11.2011 5.46499 11.0026 5.38238 10.7955 5.38135Z" fill="black"/>
<path opacity="0.2" d="M10.3683 5.80786H5.59668V16.4719H10.3683C10.5754 16.4709 10.7738 16.3883 10.9205 16.242C11.0672 16.0957 11.1503 15.8975 11.1518 15.6903V6.58946C11.1503 6.3823 11.0672 6.1841 10.9205 6.03781C10.7738 5.89151 10.5754 5.80889 10.3683 5.80786Z" fill="black"/>
<path opacity="0.2" d="M10.3683 5.80786H5.59668V15.6188H10.3683C10.5754 15.6178 10.7738 15.5352 10.9205 15.3889C11.0672 15.2426 11.1503 15.0444 11.1518 14.8372V6.58946C11.1503 6.3823 11.0672 6.1841 10.9205 6.03781C10.7738 5.89151 10.5754 5.80889 10.3683 5.80786Z" fill="black"/>
<path opacity="0.2" d="M9.94105 5.80786H5.59668V15.6188H9.94105C10.1482 15.6178 10.3466 15.5352 10.4933 15.3889C10.64 15.2426 10.7231 15.0444 10.7246 14.8372V6.58946C10.7231 6.3823 10.64 6.1841 10.4933 6.03781C10.3466 5.89151 10.1482 5.80889 9.94105 5.80786Z" fill="black"/>
<path d="M2.1068 5.80786H9.94112C10.1486 5.80769 10.3477 5.88992 10.4947 6.03647C10.6416 6.18303 10.7243 6.38193 10.7247 6.58946V14.4106C10.7243 14.6182 10.6416 14.8171 10.4947 14.9636C10.3477 15.1102 10.1486 15.1924 9.94112 15.1922H2.1068C2.00402 15.1924 1.90221 15.1723 1.8072 15.1331C1.71218 15.0939 1.62582 15.0364 1.55305 14.9638C1.48028 14.8912 1.42253 14.805 1.3831 14.7101C1.34367 14.6152 1.32333 14.5134 1.32324 14.4106V6.58946C1.32333 6.48667 1.34367 6.38492 1.3831 6.29C1.42253 6.19508 1.48028 6.10887 1.55305 6.03628C1.62582 5.9637 1.71218 5.90616 1.8072 5.86697C1.90221 5.82777 2.00402 5.80769 2.1068 5.80786Z" fill="url(#paint0_linear_1445_4643)"/>
<path d="M4.53918 11.8047C4.55427 11.9255 4.56477 12.0305 4.56937 12.1204H4.58774C4.5943 12.0351 4.60874 11.932 4.6304 11.812C4.65205 11.6919 4.67109 11.5901 4.6888 11.5068L5.5124 7.95845H6.57815L7.43127 11.4536C7.48097 11.6698 7.51648 11.8891 7.53759 12.1099H7.55202C7.5677 11.8949 7.59729 11.6812 7.64062 11.47L8.32246 7.95386H9.29174L8.09474 13.0385H6.9614L6.14962 9.67454C6.12599 9.57742 6.0993 9.45098 6.06955 9.29523C6.0398 9.13948 6.02143 9.02573 6.01443 8.95398H6.00065C5.99146 9.03667 5.97309 9.15939 5.94552 9.32214C5.91796 9.48554 5.8963 9.60564 5.8799 9.68439L5.11668 13.0405H3.9643L2.76074 7.95845H3.74512L4.48734 11.514C4.50949 11.61 4.52679 11.707 4.53918 11.8047Z" fill="white"/>
<defs>
<linearGradient id="paint0_linear_1445_4643" x1="2.95993" y1="5.19361" x2="9.08799" y2="15.8065" gradientUnits="userSpaceOnUse">
<stop stop-color="#2368C4"/>
<stop offset="0.5" stop-color="#1A5DBE"/>
<stop offset="1" stop-color="#1146AC"/>
</linearGradient>
</defs>
</svg>
